<?xml version="1.0" encoding="utf-8" standalone="no"?>
<!DOCTYPE svg PUBLIC "-//W3C//DTD SVG 1.1//EN"
  "http://www.w3.org/Graphics/SVG/1.1/DTD/svg11.dtd">
<svg xmlns:xlink="http://www.w3.org/1999/xlink" width="460.8pt" height="345.6pt" viewBox="0 0 460.8 345.6" xmlns="http://www.w3.org/2000/svg" version="1.1">
 <metadata>
  <rdf:RDF xmlns:dc="http://purl.org/dc/elements/1.1/" xmlns:cc="http://creativecommons.org/ns#" xmlns:rdf="http://www.w3.org/1999/02/22-rdf-syntax-ns#">
   <cc:Work>
    <dc:type rdf:resource="http://purl.org/dc/dcmitype/StillImage"/>
    <dc:date>2026-01-06T00:27:24.317141</dc:date>
    <dc:format>image/svg+xml</dc:format>
    <dc:creator>
     <cc:Agent>
      <dc:title>Matplotlib v3.10.8, https://matplotlib.org/</dc:title>
     </cc:Agent>
    </dc:creator>
   </cc:Work>
  </rdf:RDF>
 </metadata>
 <defs>
  <style type="text/css">*{stroke-linejoin: round; stroke-linecap: butt}</style>
 </defs>
 <g id="figure_1">
  <g id="patch_1">
   <path d="M 0 345.6 
L 460.8 345.6 
L 460.8 0 
L 0 0 
z
" style="fill: #ffffff"/>
  </g>
  <g id="axes_1">
   <g id="patch_2">
    <path d="M 57.6 307.584 
L 414.72 307.584 
L 414.72 41.472 
L 57.6 41.472 
z
" style="fill: #ffffff"/>
   </g>
   <g id="matplotlib.axis_1">
    <g id="xtick_1">
     <g id="line2d_1">
      <defs>
       <path id="m4d958abf80" d="M 0 0 
L 0 3.5 
" style="stroke: #000000; stroke-width: 0.8"/>
      </defs>
      <g>
       <use xlink:href="#m4d958abf80" x="73.832727" y="307.584" style="stroke: #000000; stroke-width: 0.8"/>
      </g>
     </g>
     <g id="text_1">
      <!-- $\mathdefault{10^{-2}}$ -->
      <g transform="translate(64.182727 321.524625) scale(0.1 -0.1)">
       <defs>
        <path id="LMRoman10-Regular-31" d="M 2682 0 
L 2682 198 
L 2477 198 
C 1901 198 1882 269 1882 506 
L 1882 4096 
C 1882 4250 1882 4262 1734 4262 
C 1338 3853 774 3853 570 3853 
L 570 3654 
C 698 3654 1075 3654 1408 3821 
L 1408 506 
C 1408 275 1389 198 813 198 
L 608 198 
L 608 0 
C 832 19 1389 19 1645 19 
C 1901 19 2458 19 2682 0 
z
" transform="scale(0.015625)"/>
        <path id="LMRoman10-Regular-30" d="M 2944 2048 
C 2944 2560 2912 3072 2688 3546 
C 2394 4160 1869 4262 1600 4262 
C 1216 4262 749 4096 486 3501 
C 282 3059 250 2560 250 2048 
C 250 1568 275 992 538 506 
C 813 -13 1280 -141 1594 -141 
C 1939 -141 2426 -6 2707 602 
C 2912 1043 2944 1542 2944 2048 
z
M 2413 2125 
C 2413 1645 2413 1210 2342 800 
C 2246 192 1882 0 1594 0 
C 1344 0 966 160 851 774 
C 781 1158 781 1747 781 2125 
C 781 2534 781 2957 832 3302 
C 954 4064 1434 4122 1594 4122 
C 1805 4122 2227 4006 2349 3373 
C 2413 3014 2413 2528 2413 2125 
z
" transform="scale(0.015625)"/>
        <path id="LMRoman10-Regular-2212" d="M 4614 1600 
C 4614 1728 4493 1728 4403 1728 
L 570 1728 
C 480 1728 358 1728 358 1600 
C 358 1472 480 1472 576 1472 
L 4397 1472 
C 4493 1472 4614 1472 4614 1600 
z
" transform="scale(0.015625)"/>
        <path id="LMRoman10-Regular-32" d="M 2874 1114 
L 2714 1114 
C 2682 922 2637 640 2573 544 
C 2528 493 2106 493 1965 493 
L 813 493 
L 1491 1152 
C 2490 2035 2874 2381 2874 3021 
C 2874 3750 2298 4262 1517 4262 
C 794 4262 320 3674 320 3104 
C 320 2746 640 2746 659 2746 
C 768 2746 992 2822 992 3085 
C 992 3251 877 3418 653 3418 
C 602 3418 589 3418 570 3411 
C 717 3827 1062 4064 1434 4064 
C 2016 4064 2291 3546 2291 3021 
C 2291 2509 1971 2003 1619 1606 
L 390 237 
C 320 166 320 154 320 0 
L 2694 0 
L 2874 1114 
z
" transform="scale(0.015625)"/>
       </defs>
       <use xlink:href="#LMRoman10-Regular-31" transform="translate(0 0.21875)"/>
       <use xlink:href="#LMRoman10-Regular-30" transform="translate(49.999985 0.21875)"/>
       <use xlink:href="#LMRoman10-Regular-2212" transform="translate(100.75411 30.384375) scale(0.7)"/>
       <use xlink:href="#LMRoman10-Regular-32" transform="translate(155.214102 30.384375) scale(0.7)"/>
      </g>
     </g>
    </g>
    <g id="xtick_2">
     <g id="line2d_2">
      <g>
       <use xlink:href="#m4d958abf80" x="138.763636" y="307.584" style="stroke: #000000; stroke-width: 0.8"/>
      </g>
     </g>
     <g id="text_2">
      <!-- $\mathdefault{10^{-1}}$ -->
      <g transform="translate(129.113636 321.524625) scale(0.1 -0.1)">
       <use xlink:href="#LMRoman10-Regular-31" transform="translate(0 0.21875)"/>
       <use xlink:href="#LMRoman10-Regular-30" transform="translate(49.999985 0.21875)"/>
       <use xlink:href="#LMRoman10-Regular-2212" transform="translate(100.75411 30.384375) scale(0.7)"/>
       <use xlink:href="#LMRoman10-Regular-31" transform="translate(155.214102 30.384375) scale(0.7)"/>
      </g>
     </g>
    </g>
    <g id="xtick_3">
     <g id="line2d_3">
      <g>
       <use xlink:href="#m4d958abf80" x="203.694545" y="307.584" style="stroke: #000000; stroke-width: 0.8"/>
      </g>
     </g>
     <g id="text_3">
      <!-- $\mathdefault{10^{0}}$ -->
      <g transform="translate(196.794545 321.524625) scale(0.1 -0.1)">
       <use xlink:href="#LMRoman10-Regular-31" transform="translate(0 0.21875)"/>
       <use xlink:href="#LMRoman10-Regular-30" transform="translate(49.999985 0.21875)"/>
       <use xlink:href="#LMRoman10-Regular-30" transform="translate(100.75411 30.384375) scale(0.7)"/>
      </g>
     </g>
    </g>
    <g id="xtick_4">
     <g id="line2d_4">
      <g>
       <use xlink:href="#m4d958abf80" x="268.625455" y="307.584" style="stroke: #000000; stroke-width: 0.8"/>
      </g>
     </g>
     <g id="text_4">
      <!-- $\mathdefault{10^{1}}$ -->
      <g transform="translate(261.725455 321.524625) scale(0.1 -0.1)">
       <use xlink:href="#LMRoman10-Regular-31" transform="translate(0 0.21875)"/>
       <use xlink:href="#LMRoman10-Regular-30" transform="translate(49.999985 0.21875)"/>
       <use xlink:href="#LMRoman10-Regular-31" transform="translate(100.75411 30.384375) scale(0.7)"/>
      </g>
     </g>
    </g>
    <g id="xtick_5">
     <g id="line2d_5">
      <g>
       <use xlink:href="#m4d958abf80" x="333.556364" y="307.584" style="stroke: #000000; stroke-width: 0.8"/>
      </g>
     </g>
     <g id="text_5">
      <!-- $\mathdefault{10^{2}}$ -->
      <g transform="translate(326.656364 321.524625) scale(0.1 -0.1)">
       <use xlink:href="#LMRoman10-Regular-31" transform="translate(0 0.21875)"/>
       <use xlink:href="#LMRoman10-Regular-30" transform="translate(49.999985 0.21875)"/>
       <use xlink:href="#LMRoman10-Regular-32" transform="translate(100.75411 30.384375) scale(0.7)"/>
      </g>
     </g>
    </g>
    <g id="xtick_6">
     <g id="line2d_6">
      <g>
       <use xlink:href="#m4d958abf80" x="398.487273" y="307.584" style="stroke: #000000; stroke-width: 0.8"/>
      </g>
     </g>
     <g id="text_6">
      <!-- $\mathdefault{10^{3}}$ -->
      <g transform="translate(391.587273 321.524625) scale(0.1 -0.1)">
       <defs>
        <path id="LMRoman10-Regular-33" d="M 2925 1094 
C 2925 1619 2522 2118 1856 2253 
C 2381 2426 2752 2874 2752 3379 
C 2752 3904 2189 4262 1574 4262 
C 928 4262 442 3878 442 3392 
C 442 3181 582 3059 768 3059 
C 966 3059 1094 3200 1094 3386 
C 1094 3706 794 3706 698 3706 
C 896 4019 1318 4102 1549 4102 
C 1811 4102 2163 3962 2163 3386 
C 2163 3309 2150 2938 1984 2656 
C 1792 2349 1574 2330 1414 2323 
C 1363 2317 1210 2304 1165 2304 
C 1114 2298 1069 2291 1069 2227 
C 1069 2157 1114 2157 1222 2157 
L 1504 2157 
C 2029 2157 2266 1722 2266 1094 
C 2266 224 1824 38 1542 38 
C 1267 38 787 147 563 525 
C 787 493 986 634 986 877 
C 986 1107 813 1235 627 1235 
C 474 1235 269 1146 269 864 
C 269 282 864 -141 1562 -141 
C 2342 -141 2925 442 2925 1094 
z
" transform="scale(0.015625)"/>
       </defs>
       <use xlink:href="#LMRoman10-Regular-31" transform="translate(0 0.21875)"/>
       <use xlink:href="#LMRoman10-Regular-30" transform="translate(49.999985 0.21875)"/>
       <use xlink:href="#LMRoman10-Regular-33" transform="translate(100.75411 30.384375) scale(0.7)"/>
      </g>
     </g>
    </g>
    <g id="xtick_7">
     <g id="line2d_7">
      <defs>
       <path id="me8a5d51d15" d="M 0 0 
L 0 2 
" style="stroke: #000000; stroke-width: 0.6"/>
      </defs>
      <g>
       <use xlink:href="#me8a5d51d15" x="59.427886" y="307.584" style="stroke: #000000; stroke-width: 0.6"/>
      </g>
     </g>
    </g>
    <g id="xtick_8">
     <g id="line2d_8">
      <g>
       <use xlink:href="#me8a5d51d15" x="63.774802" y="307.584" style="stroke: #000000; stroke-width: 0.6"/>
      </g>
     </g>
    </g>
    <g id="xtick_9">
     <g id="line2d_9">
      <g>
       <use xlink:href="#me8a5d51d15" x="67.540272" y="307.584" style="stroke: #000000; stroke-width: 0.6"/>
      </g>
     </g>
    </g>
    <g id="xtick_10">
     <g id="line2d_10">
      <g>
       <use xlink:href="#me8a5d51d15" x="70.861652" y="307.584" style="stroke: #000000; stroke-width: 0.6"/>
      </g>
     </g>
    </g>
    <g id="xtick_11">
     <g id="line2d_11">
      <g>
       <use xlink:href="#me8a5d51d15" x="93.378879" y="307.584" style="stroke: #000000; stroke-width: 0.6"/>
      </g>
     </g>
    </g>
    <g id="xtick_12">
     <g id="line2d_12">
      <g>
       <use xlink:href="#me8a5d51d15" x="104.812644" y="307.584" style="stroke: #000000; stroke-width: 0.6"/>
      </g>
     </g>
    </g>
    <g id="xtick_13">
     <g id="line2d_13">
      <g>
       <use xlink:href="#me8a5d51d15" x="112.92503" y="307.584" style="stroke: #000000; stroke-width: 0.6"/>
      </g>
     </g>
    </g>
    <g id="xtick_14">
     <g id="line2d_14">
      <g>
       <use xlink:href="#me8a5d51d15" x="119.217485" y="307.584" style="stroke: #000000; stroke-width: 0.6"/>
      </g>
     </g>
    </g>
    <g id="xtick_15">
     <g id="line2d_15">
      <g>
       <use xlink:href="#me8a5d51d15" x="124.358795" y="307.584" style="stroke: #000000; stroke-width: 0.6"/>
      </g>
     </g>
    </g>
    <g id="xtick_16">
     <g id="line2d_16">
      <g>
       <use xlink:href="#me8a5d51d15" x="128.705711" y="307.584" style="stroke: #000000; stroke-width: 0.6"/>
      </g>
     </g>
    </g>
    <g id="xtick_17">
     <g id="line2d_17">
      <g>
       <use xlink:href="#me8a5d51d15" x="132.471181" y="307.584" style="stroke: #000000; stroke-width: 0.6"/>
      </g>
     </g>
    </g>
    <g id="xtick_18">
     <g id="line2d_18">
      <g>
       <use xlink:href="#me8a5d51d15" x="135.792561" y="307.584" style="stroke: #000000; stroke-width: 0.6"/>
      </g>
     </g>
    </g>
    <g id="xtick_19">
     <g id="line2d_19">
      <g>
       <use xlink:href="#me8a5d51d15" x="158.309788" y="307.584" style="stroke: #000000; stroke-width: 0.6"/>
      </g>
     </g>
    </g>
    <g id="xtick_20">
     <g id="line2d_20">
      <g>
       <use xlink:href="#me8a5d51d15" x="169.743553" y="307.584" style="stroke: #000000; stroke-width: 0.6"/>
      </g>
     </g>
    </g>
    <g id="xtick_21">
     <g id="line2d_21">
      <g>
       <use xlink:href="#me8a5d51d15" x="177.855939" y="307.584" style="stroke: #000000; stroke-width: 0.6"/>
      </g>
     </g>
    </g>
    <g id="xtick_22">
     <g id="line2d_22">
      <g>
       <use xlink:href="#me8a5d51d15" x="184.148394" y="307.584" style="stroke: #000000; stroke-width: 0.6"/>
      </g>
     </g>
    </g>
    <g id="xtick_23">
     <g id="line2d_23">
      <g>
       <use xlink:href="#me8a5d51d15" x="189.289704" y="307.584" style="stroke: #000000; stroke-width: 0.6"/>
      </g>
     </g>
    </g>
    <g id="xtick_24">
     <g id="line2d_24">
      <g>
       <use xlink:href="#me8a5d51d15" x="193.63662" y="307.584" style="stroke: #000000; stroke-width: 0.6"/>
      </g>
     </g>
    </g>
    <g id="xtick_25">
     <g id="line2d_25">
      <g>
       <use xlink:href="#me8a5d51d15" x="197.40209" y="307.584" style="stroke: #000000; stroke-width: 0.6"/>
      </g>
     </g>
    </g>
    <g id="xtick_26">
     <g id="line2d_26">
      <g>
       <use xlink:href="#me8a5d51d15" x="200.72347" y="307.584" style="stroke: #000000; stroke-width: 0.6"/>
      </g>
     </g>
    </g>
    <g id="xtick_27">
     <g id="line2d_27">
      <g>
       <use xlink:href="#me8a5d51d15" x="223.240697" y="307.584" style="stroke: #000000; stroke-width: 0.6"/>
      </g>
     </g>
    </g>
    <g id="xtick_28">
     <g id="line2d_28">
      <g>
       <use xlink:href="#me8a5d51d15" x="234.674462" y="307.584" style="stroke: #000000; stroke-width: 0.6"/>
      </g>
     </g>
    </g>
    <g id="xtick_29">
     <g id="line2d_29">
      <g>
       <use xlink:href="#me8a5d51d15" x="242.786848" y="307.584" style="stroke: #000000; stroke-width: 0.6"/>
      </g>
     </g>
    </g>
    <g id="xtick_30">
     <g id="line2d_30">
      <g>
       <use xlink:href="#me8a5d51d15" x="249.079303" y="307.584" style="stroke: #000000; stroke-width: 0.6"/>
      </g>
     </g>
    </g>
    <g id="xtick_31">
     <g id="line2d_31">
      <g>
       <use xlink:href="#me8a5d51d15" x="254.220614" y="307.584" style="stroke: #000000; stroke-width: 0.6"/>
      </g>
     </g>
    </g>
    <g id="xtick_32">
     <g id="line2d_32">
      <g>
       <use xlink:href="#me8a5d51d15" x="258.567529" y="307.584" style="stroke: #000000; stroke-width: 0.6"/>
      </g>
     </g>
    </g>
    <g id="xtick_33">
     <g id="line2d_33">
      <g>
       <use xlink:href="#me8a5d51d15" x="262.332999" y="307.584" style="stroke: #000000; stroke-width: 0.6"/>
      </g>
     </g>
    </g>
    <g id="xtick_34">
     <g id="line2d_34">
      <g>
       <use xlink:href="#me8a5d51d15" x="265.654379" y="307.584" style="stroke: #000000; stroke-width: 0.6"/>
      </g>
     </g>
    </g>
    <g id="xtick_35">
     <g id="line2d_35">
      <g>
       <use xlink:href="#me8a5d51d15" x="288.171606" y="307.584" style="stroke: #000000; stroke-width: 0.6"/>
      </g>
     </g>
    </g>
    <g id="xtick_36">
     <g id="line2d_36">
      <g>
       <use xlink:href="#me8a5d51d15" x="299.605371" y="307.584" style="stroke: #000000; stroke-width: 0.6"/>
      </g>
     </g>
    </g>
    <g id="xtick_37">
     <g id="line2d_37">
      <g>
       <use xlink:href="#me8a5d51d15" x="307.717757" y="307.584" style="stroke: #000000; stroke-width: 0.6"/>
      </g>
     </g>
    </g>
    <g id="xtick_38">
     <g id="line2d_38">
      <g>
       <use xlink:href="#me8a5d51d15" x="314.010212" y="307.584" style="stroke: #000000; stroke-width: 0.6"/>
      </g>
     </g>
    </g>
    <g id="xtick_39">
     <g id="line2d_39">
      <g>
       <use xlink:href="#me8a5d51d15" x="319.151523" y="307.584" style="stroke: #000000; stroke-width: 0.6"/>
      </g>
     </g>
    </g>
    <g id="xtick_40">
     <g id="line2d_40">
      <g>
       <use xlink:href="#me8a5d51d15" x="323.498439" y="307.584" style="stroke: #000000; stroke-width: 0.6"/>
      </g>
     </g>
    </g>
    <g id="xtick_41">
     <g id="line2d_41">
      <g>
       <use xlink:href="#me8a5d51d15" x="327.263908" y="307.584" style="stroke: #000000; stroke-width: 0.6"/>
      </g>
     </g>
    </g>
    <g id="xtick_42">
     <g id="line2d_42">
      <g>
       <use xlink:href="#me8a5d51d15" x="330.585288" y="307.584" style="stroke: #000000; stroke-width: 0.6"/>
      </g>
     </g>
    </g>
    <g id="xtick_43">
     <g id="line2d_43">
      <g>
       <use xlink:href="#me8a5d51d15" x="353.102515" y="307.584" style="stroke: #000000; stroke-width: 0.6"/>
      </g>
     </g>
    </g>
    <g id="xtick_44">
     <g id="line2d_44">
      <g>
       <use xlink:href="#me8a5d51d15" x="364.53628" y="307.584" style="stroke: #000000; stroke-width: 0.6"/>
      </g>
     </g>
    </g>
    <g id="xtick_45">
     <g id="line2d_45">
      <g>
       <use xlink:href="#me8a5d51d15" x="372.648666" y="307.584" style="stroke: #000000; stroke-width: 0.6"/>
      </g>
     </g>
    </g>
    <g id="xtick_46">
     <g id="line2d_46">
      <g>
       <use xlink:href="#me8a5d51d15" x="378.941121" y="307.584" style="stroke: #000000; stroke-width: 0.6"/>
      </g>
     </g>
    </g>
    <g id="xtick_47">
     <g id="line2d_47">
      <g>
       <use xlink:href="#me8a5d51d15" x="384.082432" y="307.584" style="stroke: #000000; stroke-width: 0.6"/>
      </g>
     </g>
    </g>
    <g id="xtick_48">
     <g id="line2d_48">
      <g>
       <use xlink:href="#me8a5d51d15" x="388.429348" y="307.584" style="stroke: #000000; stroke-width: 0.6"/>
      </g>
     </g>
    </g>
    <g id="xtick_49">
     <g id="line2d_49">
      <g>
       <use xlink:href="#me8a5d51d15" x="392.194817" y="307.584" style="stroke: #000000; stroke-width: 0.6"/>
      </g>
     </g>
    </g>
    <g id="xtick_50">
     <g id="line2d_50">
      <g>
       <use xlink:href="#me8a5d51d15" x="395.516197" y="307.584" style="stroke: #000000; stroke-width: 0.6"/>
      </g>
     </g>
    </g>
    <g id="text_7">
     <!-- $v$ (m$^3$/kg) -->
     <g transform="translate(214.06 335.96525) scale(0.1 -0.1)">
      <defs>
       <path id="Cmmi10-76" d="M 684 722 
Q 684 866 718 1037 
Q 753 1209 787 1320 
Q 822 1431 944 1753 
Q 1066 2075 1069 2088 
Q 1153 2322 1153 2472 
Q 1153 2663 1013 2663 
Q 759 2663 595 2402 
Q 431 2141 353 1819 
Q 341 1778 300 1778 
L 225 1778 
Q 172 1778 172 1838 
L 172 1856 
Q 275 2238 487 2533 
Q 700 2828 1025 2828 
Q 1253 2828 1411 2678 
Q 1569 2528 1569 2297 
Q 1569 2178 1516 2047 
Q 1391 1722 1319 1526 
Q 1247 1331 1186 1089 
Q 1125 847 1125 641 
Q 1125 400 1236 248 
Q 1347 97 1581 97 
Q 2025 97 2381 781 
Q 2494 1003 2594 1303 
Q 2694 1603 2694 1791 
Q 2694 1984 2631 2092 
Q 2569 2200 2469 2317 
Q 2369 2434 2369 2503 
Q 2369 2628 2472 2731 
Q 2575 2834 2700 2834 
Q 2853 2834 2920 2693 
Q 2988 2553 2988 2375 
Q 2988 2163 2927 1869 
Q 2866 1575 2758 1259 
Q 2650 944 2559 763 
Q 2138 -72 1575 -72 
Q 1172 -72 928 129 
Q 684 331 684 722 
z
" transform="scale(0.015625)"/>
       <path id="LMRoman10-Regular-20" transform="scale(0.015625)"/>
       <path id="LMRoman10-Regular-28" d="M 2118 -1536 
C 2118 -1517 2118 -1504 2010 -1395 
C 1210 -589 1005 621 1005 1600 
C 1005 2714 1248 3827 2035 4627 
C 2118 4704 2118 4717 2118 4736 
C 2118 4781 2093 4800 2054 4800 
C 1990 4800 1414 4365 1037 3552 
C 710 2848 634 2138 634 1600 
C 634 1101 704 326 1056 -397 
C 1440 -1184 1990 -1600 2054 -1600 
C 2093 -1600 2118 -1581 2118 -1536 
z
" transform="scale(0.015625)"/>
       <path id="LMRoman10-Regular-6d" d="M 5203 0 
L 5203 198 
C 4870 198 4710 198 4704 390 
L 4704 1613 
C 4704 2163 4704 2362 4506 2592 
C 4416 2701 4205 2829 3834 2829 
C 3296 2829 3014 2445 2906 2202 
C 2816 2758 2342 2829 2054 2829 
C 1587 2829 1286 2554 1107 2157 
L 1107 2829 
L 205 2758 
L 205 2560 
C 653 2560 704 2515 704 2202 
L 704 486 
C 704 198 634 198 205 198 
L 205 0 
L 928 19 
L 1645 0 
L 1645 198 
C 1216 198 1146 198 1146 486 
L 1146 1664 
C 1146 2330 1600 2688 2010 2688 
C 2413 2688 2483 2342 2483 1978 
L 2483 486 
C 2483 198 2413 198 1984 198 
L 1984 0 
L 2707 19 
L 3424 0 
L 3424 198 
C 2995 198 2925 198 2925 486 
L 2925 1664 
C 2925 2330 3379 2688 3789 2688 
C 4192 2688 4262 2342 4262 1978 
L 4262 486 
C 4262 198 4192 198 3763 198 
L 3763 0 
L 4486 19 
L 5203 0 
z
" transform="scale(0.015625)"/>
       <path id="Cmr10-33" d="M 609 494 
Q 759 275 1012 169 
Q 1266 63 1556 63 
Q 1928 63 2084 380 
Q 2241 697 2241 1100 
Q 2241 1281 2208 1462 
Q 2175 1644 2097 1800 
Q 2019 1956 1883 2050 
Q 1747 2144 1550 2144 
L 1125 2144 
Q 1069 2144 1069 2203 
L 1069 2259 
Q 1069 2309 1125 2309 
L 1478 2338 
Q 1703 2338 1851 2506 
Q 2000 2675 2069 2917 
Q 2138 3159 2138 3378 
Q 2138 3684 1994 3881 
Q 1850 4078 1556 4078 
Q 1313 4078 1091 3986 
Q 869 3894 738 3706 
Q 750 3709 759 3711 
Q 769 3713 781 3713 
Q 925 3713 1022 3613 
Q 1119 3513 1119 3372 
Q 1119 3234 1022 3134 
Q 925 3034 781 3034 
Q 641 3034 541 3134 
Q 441 3234 441 3372 
Q 441 3647 606 3850 
Q 772 4053 1033 4158 
Q 1294 4263 1556 4263 
Q 1750 4263 1965 4205 
Q 2181 4147 2356 4039 
Q 2531 3931 2642 3762 
Q 2753 3594 2753 3378 
Q 2753 3109 2633 2881 
Q 2513 2653 2303 2487 
Q 2094 2322 1844 2241 
Q 2122 2188 2372 2031 
Q 2622 1875 2773 1631 
Q 2925 1388 2925 1106 
Q 2925 753 2731 467 
Q 2538 181 2222 20 
Q 1906 -141 1556 -141 
Q 1256 -141 954 -26 
Q 653 88 461 316 
Q 269 544 269 863 
Q 269 1022 375 1128 
Q 481 1234 641 1234 
Q 744 1234 830 1186 
Q 916 1138 964 1050 
Q 1013 963 1013 863 
Q 1013 706 903 600 
Q 794 494 641 494 
L 609 494 
z
" transform="scale(0.015625)"/>
       <path id="LMRoman10-Regular-2f" d="M 2835 4672 
C 2835 4742 2778 4800 2707 4800 
C 2618 4800 2592 4736 2573 4672 
L 390 -1357 
C 358 -1440 358 -1472 358 -1472 
C 358 -1542 416 -1600 486 -1600 
C 576 -1600 602 -1536 621 -1472 
L 2803 4557 
C 2835 4640 2835 4672 2835 4672 
z
" transform="scale(0.015625)"/>
       <path id="LMRoman10-Regular-6b" d="M 3270 0 
L 3270 198 
C 3034 198 2893 198 2650 538 
L 1837 1683 
C 1830 1696 1798 1734 1798 1754 
C 1798 1779 2253 2163 2317 2214 
C 2720 2541 2989 2554 3123 2560 
L 3123 2758 
C 2938 2739 2854 2739 2675 2739 
C 2445 2739 2048 2752 1958 2758 
L 1958 2560 
C 2080 2554 2144 2483 2144 2400 
C 2144 2272 2054 2195 2003 2150 
L 1101 1370 
L 1101 4442 
L 179 4371 
L 179 4173 
C 627 4173 678 4128 678 3814 
L 678 486 
C 678 198 608 198 179 198 
L 179 0 
L 877 19 
L 1581 0 
L 1581 198 
C 1152 198 1082 198 1082 486 
L 1082 1146 
L 1491 1498 
C 1984 819 2253 461 2253 346 
C 2253 224 2144 198 2022 198 
L 2022 0 
L 2714 19 
C 2899 19 3085 13 3270 0 
z
" transform="scale(0.015625)"/>
       <path id="LMRoman10-Regular-67" d="M 3104 2586 
C 3104 2694 3027 2899 2778 2899 
C 2650 2899 2368 2861 2099 2598 
C 1830 2810 1562 2829 1421 2829 
C 826 2829 384 2387 384 1894 
C 384 1613 525 1370 685 1235 
C 602 1139 486 928 486 704 
C 486 506 570 262 768 134 
C 384 26 179 -250 179 -506 
C 179 -966 813 -1318 1594 -1318 
C 2349 -1318 3014 -992 3014 -493 
C 3014 -269 2925 58 2598 237 
C 2259 416 1888 416 1498 416 
C 1338 416 1062 416 1018 422 
C 813 448 678 646 678 851 
C 678 877 678 1024 787 1152 
C 1037 973 1299 954 1421 954 
C 2016 954 2458 1395 2458 1888 
C 2458 2125 2355 2362 2195 2509 
C 2426 2726 2656 2758 2771 2758 
C 2771 2758 2816 2758 2835 2752 
C 2765 2726 2733 2656 2733 2579 
C 2733 2470 2816 2394 2918 2394 
C 2982 2394 3104 2438 3104 2586 
z
M 1978 1894 
C 1978 1722 1971 1517 1875 1357 
C 1824 1280 1677 1101 1421 1101 
C 864 1101 864 1741 864 1888 
C 864 2061 870 2266 966 2426 
C 1018 2502 1165 2682 1421 2682 
C 1978 2682 1978 2042 1978 1894 
z
M 2682 -506 
C 2682 -851 2227 -1171 1600 -1171 
C 954 -1171 512 -845 512 -506 
C 512 -211 755 26 1037 45 
L 1414 45 
C 1965 45 2682 45 2682 -506 
z
" transform="scale(0.015625)"/>
       <path id="LMRoman10-Regular-29" d="M 1850 1600 
C 1850 2099 1779 2874 1427 3597 
C 1043 4384 493 4800 429 4800 
C 390 4800 365 4774 365 4736 
C 365 4717 365 4704 486 4589 
C 1114 3955 1478 2938 1478 1600 
C 1478 506 1242 -621 448 -1427 
C 365 -1504 365 -1517 365 -1536 
C 365 -1574 390 -1600 429 -1600 
C 493 -1600 1069 -1165 1446 -352 
C 1773 352 1850 1062 1850 1600 
z
" transform="scale(0.015625)"/>
      </defs>
      <use xlink:href="#Cmmi10-76" transform="translate(0 0.109375)"/>
      <use xlink:href="#LMRoman10-Regular-20" transform="translate(48.388672 0.109375)"/>
      <use xlink:href="#LMRoman10-Regular-28" transform="translate(81.68866 0.109375)"/>
      <use xlink:href="#LMRoman10-Regular-6d" transform="translate(120.588654 0.109375)"/>
      <use xlink:href="#Cmr10-33" transform="translate(208.352782 38.373438) scale(0.7)"/>
      <use xlink:href="#LMRoman10-Regular-2f" transform="translate(249.730126 0.109375)"/>
      <use xlink:href="#LMRoman10-Regular-6b" transform="translate(299.73011 0.109375)"/>
      <use xlink:href="#LMRoman10-Regular-67" transform="translate(352.530098 0.109375)"/>
      <use xlink:href="#LMRoman10-Regular-29" transform="translate(402.530083 0.109375)"/>
     </g>
    </g>
   </g>
   <g id="matplotlib.axis_2">
    <g id="ytick_1">
     <g id="line2d_51">
      <defs>
       <path id="m7aca439c51" d="M 0 0 
L -3.5 0 
" style="stroke: #000000; stroke-width: 0.8"/>
      </defs>
      <g>
       <use xlink:href="#m7aca439c51" x="57.6" y="292.305069" style="stroke: #000000; stroke-width: 0.8"/>
      </g>
     </g>
     <g id="text_8">
      <!-- $\mathdefault{−14600}$ -->
      <g transform="translate(17.8 295.775381) scale(0.1 -0.1)">
       <defs>
        <path id="LMRoman10-Regular-34" d="M 3014 1056 
L 3014 1254 
L 2374 1254 
L 2374 4166 
C 2374 4294 2374 4333 2272 4333 
C 2214 4333 2195 4333 2144 4256 
L 179 1254 
L 179 1056 
L 1882 1056 
L 1882 499 
C 1882 269 1869 198 1395 198 
L 1261 198 
L 1261 0 
C 1523 19 1856 19 2125 19 
C 2394 19 2733 19 2995 0 
L 2995 198 
L 2861 198 
C 2387 198 2374 269 2374 499 
L 2374 1056 
L 3014 1056 
z
M 1920 1254 
L 358 1254 
L 1920 3642 
L 1920 1254 
z
" transform="scale(0.015625)"/>
        <path id="LMRoman10-Regular-36" d="M 2925 1306 
C 2925 2118 2355 2733 1645 2733 
C 1210 2733 973 2406 845 2099 
L 845 2253 
C 845 3872 1638 4102 1965 4102 
C 2118 4102 2387 4064 2528 3846 
C 2432 3846 2176 3846 2176 3558 
C 2176 3360 2330 3264 2470 3264 
C 2573 3264 2765 3322 2765 3571 
C 2765 3955 2483 4262 1952 4262 
C 1133 4262 269 3437 269 2022 
C 269 314 1011 -141 1606 -141 
C 2317 -141 2925 461 2925 1306 
z
M 2349 1312 
C 2349 1005 2349 685 2240 454 
C 2048 70 1754 38 1606 38 
C 1203 38 1011 422 973 518 
C 858 819 858 1331 858 1446 
C 858 1946 1062 2586 1638 2586 
C 1741 2586 2035 2586 2234 2189 
C 2349 1952 2349 1626 2349 1312 
z
" transform="scale(0.015625)"/>
       </defs>
       <use xlink:href="#LMRoman10-Regular-2212" transform="translate(0 0.296875)"/>
       <use xlink:href="#LMRoman10-Regular-31" transform="translate(77.799988 0.296875)"/>
       <use xlink:href="#LMRoman10-Regular-34" transform="translate(127.799973 0.296875)"/>
       <use xlink:href="#LMRoman10-Regular-36" transform="translate(177.799957 0.296875)"/>
       <use xlink:href="#LMRoman10-Regular-30" transform="translate(227.799942 0.296875)"/>
       <use xlink:href="#LMRoman10-Regular-30" transform="translate(277.799927 0.296875)"/>
      </g>
     </g>
    </g>
    <g id="ytick_2">
     <g id="line2d_52">
      <g>
       <use xlink:href="#m7aca439c51" x="57.6" y="257.335414" style="stroke: #000000; stroke-width: 0.8"/>
      </g>
     </g>
     <g id="text_9">
      <!-- $\mathdefault{−14400}$ -->
      <g transform="translate(17.8 260.805727) scale(0.1 -0.1)">
       <use xlink:href="#LMRoman10-Regular-2212" transform="translate(0 0.296875)"/>
       <use xlink:href="#LMRoman10-Regular-31" transform="translate(77.799988 0.296875)"/>
       <use xlink:href="#LMRoman10-Regular-34" transform="translate(127.799973 0.296875)"/>
       <use xlink:href="#LMRoman10-Regular-34" transform="translate(177.799957 0.296875)"/>
       <use xlink:href="#LMRoman10-Regular-30" transform="translate(227.799942 0.296875)"/>
       <use xlink:href="#LMRoman10-Regular-30" transform="translate(277.799927 0.296875)"/>
      </g>
     </g>
    </g>
    <g id="ytick_3">
     <g id="line2d_53">
      <g>
       <use xlink:href="#m7aca439c51" x="57.6" y="222.365759" style="stroke: #000000; stroke-width: 0.8"/>
      </g>
     </g>
     <g id="text_10">
      <!-- $\mathdefault{−14200}$ -->
      <g transform="translate(17.8 225.836072) scale(0.1 -0.1)">
       <use xlink:href="#LMRoman10-Regular-2212" transform="translate(0 0.296875)"/>
       <use xlink:href="#LMRoman10-Regular-31" transform="translate(77.799988 0.296875)"/>
       <use xlink:href="#LMRoman10-Regular-34" transform="translate(127.799973 0.296875)"/>
       <use xlink:href="#LMRoman10-Regular-32" transform="translate(177.799957 0.296875)"/>
       <use xlink:href="#LMRoman10-Regular-30" transform="translate(227.799942 0.296875)"/>
       <use xlink:href="#LMRoman10-Regular-30" transform="translate(277.799927 0.296875)"/>
      </g>
     </g>
    </g>
    <g id="ytick_4">
     <g id="line2d_54">
      <g>
       <use xlink:href="#m7aca439c51" x="57.6" y="187.396105" style="stroke: #000000; stroke-width: 0.8"/>
      </g>
     </g>
     <g id="text_11">
      <!-- $\mathdefault{−14000}$ -->
      <g transform="translate(17.8 190.866417) scale(0.1 -0.1)">
       <use xlink:href="#LMRoman10-Regular-2212" transform="translate(0 0.296875)"/>
       <use xlink:href="#LMRoman10-Regular-31" transform="translate(77.799988 0.296875)"/>
       <use xlink:href="#LMRoman10-Regular-34" transform="translate(127.799973 0.296875)"/>
       <use xlink:href="#LMRoman10-Regular-30" transform="translate(177.799957 0.296875)"/>
       <use xlink:href="#LMRoman10-Regular-30" transform="translate(227.799942 0.296875)"/>
       <use xlink:href="#LMRoman10-Regular-30" transform="translate(277.799927 0.296875)"/>
      </g>
     </g>
    </g>
    <g id="ytick_5">
     <g id="line2d_55">
      <g>
       <use xlink:href="#m7aca439c51" x="57.6" y="152.42645" style="stroke: #000000; stroke-width: 0.8"/>
      </g>
     </g>
     <g id="text_12">
      <!-- $\mathdefault{−13800}$ -->
      <g transform="translate(17.8 155.896762) scale(0.1 -0.1)">
       <defs>
        <path id="LMRoman10-Regular-38" d="M 2925 1075 
C 2925 1306 2854 1594 2611 1862 
C 2490 1997 2387 2061 1978 2317 
C 2438 2554 2752 2886 2752 3309 
C 2752 3898 2182 4262 1600 4262 
C 960 4262 442 3789 442 3194 
C 442 3078 454 2790 723 2490 
C 794 2413 1030 2253 1190 2144 
C 819 1958 269 1600 269 966 
C 269 288 922 -141 1594 -141 
C 2317 -141 2925 390 2925 1075 
z
M 2470 3309 
C 2470 2944 2221 2637 1837 2413 
L 1043 2925 
C 749 3117 723 3334 723 3443 
C 723 3834 1139 4102 1594 4102 
C 2061 4102 2470 3770 2470 3309 
z
M 2605 845 
C 2605 371 2125 38 1600 38 
C 1050 38 589 435 589 966 
C 589 1338 794 1747 1338 2048 
L 2125 1549 
C 2304 1427 2605 1235 2605 845 
z
" transform="scale(0.015625)"/>
       </defs>
       <use xlink:href="#LMRoman10-Regular-2212" transform="translate(0 0.40625)"/>
       <use xlink:href="#LMRoman10-Regular-31" transform="translate(77.799988 0.40625)"/>
       <use xlink:href="#LMRoman10-Regular-33" transform="translate(127.799973 0.40625)"/>
       <use xlink:href="#LMRoman10-Regular-38" transform="translate(177.799957 0.40625)"/>
       <use xlink:href="#LMRoman10-Regular-30" transform="translate(227.799942 0.40625)"/>
       <use xlink:href="#LMRoman10-Regular-30" transform="translate(277.799927 0.40625)"/>
      </g>
     </g>
    </g>
    <g id="ytick_6">
     <g id="line2d_56">
      <g>
       <use xlink:href="#m7aca439c51" x="57.6" y="117.456795" style="stroke: #000000; stroke-width: 0.8"/>
      </g>
     </g>
     <g id="text_13">
      <!-- $\mathdefault{−13600}$ -->
      <g transform="translate(17.8 120.927107) scale(0.1 -0.1)">
       <use xlink:href="#LMRoman10-Regular-2212" transform="translate(0 0.40625)"/>
       <use xlink:href="#LMRoman10-Regular-31" transform="translate(77.799988 0.40625)"/>
       <use xlink:href="#LMRoman10-Regular-33" transform="translate(127.799973 0.40625)"/>
       <use xlink:href="#LMRoman10-Regular-36" transform="translate(177.799957 0.40625)"/>
       <use xlink:href="#LMRoman10-Regular-30" transform="translate(227.799942 0.40625)"/>
       <use xlink:href="#LMRoman10-Regular-30" transform="translate(277.799927 0.40625)"/>
      </g>
     </g>
    </g>
    <g id="ytick_7">
     <g id="line2d_57">
      <g>
       <use xlink:href="#m7aca439c51" x="57.6" y="82.48714" style="stroke: #000000; stroke-width: 0.8"/>
      </g>
     </g>
     <g id="text_14">
      <!-- $\mathdefault{−13400}$ -->
      <g transform="translate(17.8 85.957453) scale(0.1 -0.1)">
       <use xlink:href="#LMRoman10-Regular-2212" transform="translate(0 0.296875)"/>
       <use xlink:href="#LMRoman10-Regular-31" transform="translate(77.799988 0.296875)"/>
       <use xlink:href="#LMRoman10-Regular-33" transform="translate(127.799973 0.296875)"/>
       <use xlink:href="#LMRoman10-Regular-34" transform="translate(177.799957 0.296875)"/>
       <use xlink:href="#LMRoman10-Regular-30" transform="translate(227.799942 0.296875)"/>
       <use xlink:href="#LMRoman10-Regular-30" transform="translate(277.799927 0.296875)"/>
      </g>
     </g>
    </g>
    <g id="ytick_8">
     <g id="line2d_58">
      <g>
       <use xlink:href="#m7aca439c51" x="57.6" y="47.517485" style="stroke: #000000; stroke-width: 0.8"/>
      </g>
     </g>
     <g id="text_15">
      <!-- $\mathdefault{−13200}$ -->
      <g transform="translate(17.8 50.987798) scale(0.1 -0.1)">
       <use xlink:href="#LMRoman10-Regular-2212" transform="translate(0 0.40625)"/>
       <use xlink:href="#LMRoman10-Regular-31" transform="translate(77.799988 0.40625)"/>
       <use xlink:href="#LMRoman10-Regular-33" transform="translate(127.799973 0.40625)"/>
       <use xlink:href="#LMRoman10-Regular-32" transform="translate(177.799957 0.40625)"/>
       <use xlink:href="#LMRoman10-Regular-30" transform="translate(227.799942 0.40625)"/>
       <use xlink:href="#LMRoman10-Regular-30" transform="translate(277.799927 0.40625)"/>
      </g>
     </g>
    </g>
    <g id="text_16">
     <!-- $u$ (kJ/kg) -->
     <g transform="translate(11.3 195.828) rotate(-90) scale(0.1 -0.1)">
      <defs>
       <path id="Cmmi10-75" d="M 678 697 
Q 678 906 734 1126 
Q 791 1347 892 1617 
Q 994 1888 1069 2088 
Q 1153 2322 1153 2472 
Q 1153 2663 1013 2663 
Q 759 2663 595 2402 
Q 431 2141 353 1819 
Q 341 1778 300 1778 
L 225 1778 
Q 172 1778 172 1838 
L 172 1856 
Q 275 2238 487 2533 
Q 700 2828 1025 2828 
Q 1253 2828 1411 2678 
Q 1569 2528 1569 2297 
Q 1569 2178 1516 2047 
Q 1488 1969 1388 1706 
Q 1288 1444 1234 1272 
Q 1181 1100 1147 934 
Q 1113 769 1113 603 
Q 1113 391 1203 244 
Q 1294 97 1497 97 
Q 1906 97 2216 603 
Q 2222 628 2226 651 
Q 2231 675 2234 697 
L 2694 2553 
Q 2716 2638 2794 2698 
Q 2872 2759 2963 2759 
Q 3041 2759 3098 2709 
Q 3156 2659 3156 2578 
Q 3156 2541 3150 2528 
L 2688 684 
Q 2644 494 2644 372 
Q 2644 97 2828 97 
Q 3034 97 3136 351 
Q 3238 606 3309 941 
Q 3322 978 3359 978 
L 3438 978 
Q 3463 978 3478 956 
Q 3494 934 3494 916 
Q 3425 641 3361 444 
Q 3297 247 3159 87 
Q 3022 -72 2816 -72 
Q 2613 -72 2452 39 
Q 2291 150 2234 341 
Q 2088 153 1894 40 
Q 1700 -72 1484 -72 
Q 1116 -72 897 129 
Q 678 331 678 697 
z
" transform="scale(0.015625)"/>
       <path id="LMRoman10-Regular-4a" d="M 2976 4173 
L 2976 4371 
L 2150 4352 
C 1882 4352 1318 4352 1075 4371 
L 1075 4173 
L 1306 4173 
C 1933 4173 1933 4090 1933 3866 
L 1933 947 
C 1933 358 1613 0 1274 0 
C 1235 0 800 0 570 371 
C 902 371 979 563 979 730 
C 979 960 800 1088 621 1088 
C 480 1088 262 998 262 717 
C 262 243 717 -141 1286 -141 
C 1939 -141 2406 307 2477 787 
C 2483 838 2483 851 2483 1069 
L 2483 3910 
C 2483 4173 2573 4173 2976 4173 
z
" transform="scale(0.015625)"/>
      </defs>
      <use xlink:href="#Cmmi10-75"/>
      <use xlink:href="#LMRoman10-Regular-20" transform="translate(57.177734 0)"/>
      <use xlink:href="#LMRoman10-Regular-28" transform="translate(90.477722 0)"/>
      <use xlink:href="#LMRoman10-Regular-6b" transform="translate(129.377716 0)"/>
      <use xlink:href="#LMRoman10-Regular-4a" transform="translate(182.177704 0)"/>
      <use xlink:href="#LMRoman10-Regular-2f" transform="translate(233.577698 0)"/>
      <use xlink:href="#LMRoman10-Regular-6b" transform="translate(283.577682 0)"/>
      <use xlink:href="#LMRoman10-Regular-67" transform="translate(336.37767 0)"/>
      <use xlink:href="#LMRoman10-Regular-29" transform="translate(386.377655 0)"/>
     </g>
    </g>
   </g>
   <g id="line2d_59">
    <path d="M 73.832727 295.488 
L 80.45833 281.07875 
L 87.083933 262.853136 
L 93.709536 239.800373 
L 100.335139 210.641964 
L 106.960742 173.7608 
L 113.586345 127.111466 
L 120.211948 76.140288 
L 126.837551 71.040615 
L 133.463154 67.133856 
L 140.088757 64.130573 
L 146.71436 61.813269 
L 153.339963 60.018778 
L 159.965566 58.62449 
L 166.591169 57.537918 
L 173.216772 56.688959 
L 179.842375 56.024195 
L 186.467978 55.502707 
L 193.093581 55.092995 
L 199.719184 54.770701 
L 206.344787 54.516917 
L 212.97039 54.316919 
L 219.595993 54.159203 
L 226.221596 54.034766 
L 232.847199 53.936544 
L 239.472801 53.858989 
L 246.098404 53.797736 
L 252.724007 53.749348 
L 259.34961 53.711117 
L 265.975213 53.680906 
L 272.600816 53.657031 
L 279.226419 53.638162 
L 285.852022 53.623247 
L 292.477625 53.611457 
L 299.103228 53.602138 
L 305.728831 53.594771 
L 312.354434 53.588948 
L 318.980037 53.584344 
L 325.60564 53.580704 
L 332.231243 53.577827 
L 338.856846 53.575552 
L 345.482449 53.573753 
L 352.108052 53.572332 
L 358.733655 53.571208 
L 365.359258 53.570319 
L 371.984861 53.569616 
L 378.610464 53.569061 
L 385.236067 53.568622 
L 391.86167 53.568274 
L 398.487273 53.568 
" clip-path="url(#pe2d46216e3)" style="fill: none; stroke: #1f77b4; stroke-width: 1.5; stroke-linecap: square"/>
   </g>
   <g id="patch_3">
    <path d="M 57.6 307.584 
L 57.6 41.472 
" style="fill: none; stroke: #000000; stroke-width: 0.8; stroke-linejoin: miter; stroke-linecap: square"/>
   </g>
   <g id="patch_4">
    <path d="M 414.72 307.584 
L 414.72 41.472 
" style="fill: none; stroke: #000000; stroke-width: 0.8; stroke-linejoin: miter; stroke-linecap: square"/>
   </g>
   <g id="patch_5">
    <path d="M 57.6 307.584 
L 414.72 307.584 
" style="fill: none; stroke: #000000; stroke-width: 0.8; stroke-linejoin: miter; stroke-linecap: square"/>
   </g>
   <g id="patch_6">
    <path d="M 57.6 41.472 
L 414.72 41.472 
" style="fill: none; stroke: #000000; stroke-width: 0.8; stroke-linejoin: miter; stroke-linecap: square"/>
   </g>
  </g>
 </g>
 <defs>
  <clipPath id="pe2d46216e3">
   <rect x="57.6" y="41.472" width="357.12" height="266.112"/>
  </clipPath>
 </defs>
</svg>
